<svg width="93" height="86" viewBox="0 0 93 86" fill="none" xmlns="http://www.w3.org/2000/svg">
<rect x="4.42871" y="16.8447" width="84.881" height="56.7729" fill="#E95949"/>
<path d="M76.4707 54.5903V56.78H80.0127L80.1035 56.6957H80.2852L80.376 56.6115H80.4668L80.7393 56.3589V56.2747L80.8301 56.1904V56.1062L80.9209 56.022V55.4325L80.8301 55.3483V55.2641L80.7393 55.1798V55.0956L80.4668 54.843H80.376L80.2852 54.7588H80.1035L80.0127 54.6745H79.6494L79.5586 54.5903H76.4707Z" fill="#F7F5F5"/>
<path d="M41.5049 51.2216V51.3901L41.4141 51.4743V51.6427L41.3232 51.7269V51.8953L41.2324 51.9796V52.148L41.1416 52.2322V52.4006L41.0508 52.4849V52.5691L40.96 52.6533V52.8217L40.8691 52.9059V53.0744L40.7783 53.1586V53.327L40.6875 53.4112V53.5797L40.5967 53.6639V53.8323L40.5059 53.9165V54.0008L40.415 54.085V54.2534L40.3242 54.3376V54.506L40.2334 54.5903V54.7587L40.1426 54.8429V54.9271H42.958V54.8429L42.8672 54.7587V54.6745L42.7764 54.5903V54.4218L42.6855 54.3376V54.1692L42.5947 54.085V53.9165L42.5039 53.8323V53.6639L42.4131 53.5797V53.4955L42.3223 53.4112V53.2428L42.2314 53.1586V52.9902L42.1406 52.9059V52.7375L42.0498 52.6533V52.4849L41.959 52.4006V52.2322L41.8682 52.148V52.0638L41.7773 51.9796V51.8111L41.6865 51.7269V51.5585L41.5957 51.4743V51.3058L41.5049 51.2216Z" fill="#F7F5F5"/>
<path d="M76.4707 50.7164V52.8218H79.5586L79.6494 52.7376H79.8311L79.9219 52.6533H80.0127L80.1035 52.5691H80.1943L80.4668 52.3165V52.2323L80.5576 52.148V51.3901L80.4668 51.3059V51.2217L80.376 51.1375V51.0532L80.2852 50.969H80.1943L80.1035 50.8848H80.0127L79.9219 50.8006H79.7402L79.6494 50.7164H76.4707Z" fill="#F7F5F5"/>
<path d="M66.208 50.7164L66.1172 50.8006H65.8447L65.7539 50.8848H65.5723L65.4814 50.969H65.3906L65.2998 51.0532H65.209L65.0273 51.2217H64.9365L64.3008 51.8112V51.8954L64.1191 52.0638V52.148L64.0283 52.2323V52.3165L63.9375 52.4007V52.4849L63.8467 52.5691V52.6533L63.7559 52.7376V52.9902L63.665 53.0744V54.5061L63.7559 54.5903V54.7587L63.8467 54.843V55.0114L63.9375 55.0956V55.1798L64.0283 55.264V55.3483L64.1191 55.4325V55.5167L64.3008 55.6851V55.7693L64.7549 56.1904H64.8457L65.0273 56.3589H65.1182L65.2998 56.5273H65.3906L65.4814 56.6115H65.6631L65.7539 56.6957H65.9355L66.0264 56.7799H66.3896L66.4805 56.8641H67.207L67.2979 56.7799H67.6611L67.752 56.6957H67.9336L68.0244 56.6115H68.2061L68.2969 56.5273H68.3877L68.4785 56.4431H68.5693L68.751 56.2746H68.8418L69.4775 55.6851V55.6009L69.6592 55.4325V55.3483L69.75 55.264V55.1798L69.8408 55.0956V55.0114L69.9316 54.9272V54.7587L70.0225 54.6745V54.4219L70.1133 54.3377V53.1586L70.0225 53.0744V52.8218L69.9316 52.7376V52.5691L69.8408 52.4849V52.4007L69.75 52.3165V52.2323L69.5684 52.0638V51.9796L69.2959 51.727V51.6427L69.0234 51.3901H68.9326L68.6602 51.1375H68.5693L68.4785 51.0532H68.3877L68.2969 50.969H68.2061L68.1152 50.8848H67.9336L67.8428 50.8006H67.6611L67.5703 50.7164H66.208Z" fill="#F7F5F5"/>
<path d="M18.5273 50.7164L18.4365 50.8006H18.1641L18.0732 50.8848H17.9824L17.8916 50.969H17.8008L17.71 51.0532H17.6191L17.5283 51.1375H17.4375L17.2559 51.3059H17.165L16.6201 51.8112V51.8954L16.4385 52.0638V52.148L16.3477 52.2323V52.3165L16.2568 52.4007V52.4849L16.166 52.5691V52.7376L16.0752 52.8218V53.0744L15.9844 53.1586V54.4219L16.0752 54.5061V54.7587L16.166 54.843V55.0114L16.2568 55.0956V55.1798L16.3477 55.264V55.3483L16.5293 55.5167V55.6009L17.3467 56.3589H17.4375L17.5283 56.4431H17.6191L17.71 56.5273H17.8008L17.8916 56.6115H17.9824L18.0732 56.6957H18.2549L18.3457 56.7799H18.7998L18.8906 56.8641H19.5264L19.6172 56.7799H20.0713L20.1621 56.6957H20.3438L20.4346 56.6115H20.5254L20.6162 56.5273H20.707L20.7979 56.4431H20.8887L21.0703 56.2746H21.1611L21.7969 55.6851V55.6009L21.9785 55.4325V55.3483L22.0693 55.264V55.1798L22.1602 55.0956V55.0114L22.251 54.9272V54.7587L22.3418 54.6745V54.4219L22.4326 54.3377V53.2429L22.3418 53.1586V52.8218L22.251 52.7376V52.6533L22.1602 52.5691V52.4007L21.9785 52.2323V52.148L21.8877 52.0638V51.9796L21.0703 51.2217H20.9795L20.7979 51.0532H20.707L20.6162 50.969H20.5254L20.4346 50.8848H20.2529L20.1621 50.8006H19.8896L19.7988 50.7164H18.5273Z" fill="#F7F5F5"/>
<path d="M32.0596 35.4732L31.9688 35.5574H31.6055L31.5146 35.6416H31.2422L31.1514 35.7259H30.9697L30.8789 35.8101H30.7881L30.6973 35.8943H30.6064L30.5156 35.9785H30.334L30.1523 36.1469H30.0615L29.9707 36.2312H29.8799L29.6074 36.4838H29.5166L28.6084 37.326V37.4102L28.4268 37.5786V37.6628L28.2451 37.8313V37.9155L28.1543 37.9997V38.0839L28.0635 38.1681V38.2523L27.9727 38.3366V38.4208L27.8818 38.505V38.6734L27.791 38.7576V38.9261L27.7002 39.0103V39.1787L27.6094 39.2629V39.5998L27.5186 39.684V41.3683L27.6094 41.4526V41.7894L27.7002 41.8736V42.1263L27.791 42.2105V42.2947L27.8818 42.3789V42.5474L27.9727 42.6316V42.7158L28.0635 42.8V42.8842L28.2451 43.0527V43.1369L28.4268 43.3053V43.3895L28.6992 43.6422V43.7264L29.0625 44.0633V43.979L29.2441 43.8106V43.7264L29.4258 43.558V43.4737L29.6982 43.2211V43.1369L29.9707 42.8842V42.8L30.5156 42.2947V42.2105L32.332 40.5262H32.4229L32.877 40.1051H32.9678L33.2402 39.8524H33.3311L33.6035 39.5998H33.6943L33.7852 39.5156H33.876L34.0576 39.3471H34.1484L34.3301 39.1787H34.4209L34.5117 39.0945H34.6025L34.6934 39.0103H34.7842L34.875 38.9261H34.9658L35.0566 38.8419H35.1475L35.2383 38.7576H35.3291L35.4199 38.6734H35.6016L35.6924 38.5892H35.7832L35.874 38.505H36.0557L36.1465 38.4208H36.2373L36.3281 38.3366H36.5098L36.6006 38.2523H36.873L36.9639 38.1681H37.1455L37.2363 38.0839H37.5996L37.6904 37.9997H37.7812L37.5088 37.747V37.6628L37.3271 37.4944V37.4102L36.4189 36.568H36.3281L36.0557 36.3154H35.9648L35.874 36.2312H35.7832L35.6016 36.0627H35.5107L35.4199 35.9785H35.3291L35.2383 35.8943H35.0566L34.9658 35.8101H34.875L34.7842 35.7259H34.6025L34.5117 35.6416H34.2393L34.1484 35.5574H33.7852L33.6943 35.4732H32.0596Z" fill="#F7F5F5"/>
<path d="M39.416 24.7778L39.3252 24.862H38.5078L38.417 24.9462H37.7812L37.6904 25.0304H37.2363L37.1455 25.1146H36.7822L36.6914 25.1989H36.3281L36.2373 25.2831H35.9648L35.874 25.3673H35.6016L35.5107 25.4515H35.2383L35.1475 25.5357H34.9658L34.875 25.6199H34.6934L34.6025 25.7041H34.4209L34.3301 25.7884H34.1484L34.0576 25.8726H33.876L33.7852 25.9568H33.6035L33.5127 26.041H33.3311L33.2402 26.1252H33.1494L33.0586 26.2094H32.877L32.7861 26.2937H32.6953L32.6045 26.3779H32.5137L32.4229 26.4621H32.2412L32.1504 26.5463H32.0596L31.9688 26.6305H31.8779L31.7871 26.7147H31.6963L31.6055 26.799H31.5146L31.4238 26.8832H31.333L31.2422 26.9674H31.1514L31.0605 27.0516H30.9697L30.7881 27.22H30.6973L30.6064 27.3043H30.5156L30.334 27.4727H30.2432L30.1523 27.5569H30.0615L29.8799 27.7253H29.7891L29.6074 27.8938H29.5166L29.335 28.0622H29.2441L28.9717 28.3148H28.8809L28.6992 28.4833H28.6084L28.4268 28.6517H28.3359L28.1543 28.8201H28.0635L27.791 29.0728H27.7002L27.6094 29.157H27.5186L27.3369 29.3254H27.2461L27.0645 29.4939H26.9736L26.792 29.6623H26.7012L26.5195 29.8307H26.4287L26.3379 29.915H26.2471L26.0654 30.0834H25.9746L25.793 30.2518H25.7021L25.6113 30.336H25.5205L25.4297 30.4203H25.3389L25.1572 30.5887H25.0664L24.9756 30.6729H24.8848L24.7939 30.7571H24.7031L24.6123 30.8413H24.5215L24.4307 30.9255H24.3398L24.1582 31.094H24.0674L23.9766 31.1782H23.7949L23.7041 31.2624H23.6133L23.5225 31.3466H23.4316L23.3408 31.4308H23.25L23.1592 31.5151H23.0684L22.9775 31.5993H22.7959L22.7051 31.6835H22.6143L22.5234 31.7677H22.3418L22.251 31.8519H22.0693L21.9785 31.9361H21.7969L21.7061 32.0204H21.5244L21.4336 32.1046H21.0703L20.9795 32.1888H20.707V32.6099L20.6162 32.6941V35.1364L20.707 35.2206V35.7259L20.7979 35.8101V36.147L20.8887 36.2312V36.4838L20.9795 36.568V36.6522L21.1611 36.8207V36.9049L21.3428 37.0733H21.4336L21.6152 37.2418H21.7061L21.7969 37.326H21.8877L21.9785 37.4102H22.0693L22.1602 37.4944H22.251L22.3418 37.5786H22.5234L22.6143 37.6628H22.9775L23.0684 37.7471H23.5225L23.6133 37.8313H25.793V37.6628L25.8838 37.5786V37.4944L25.9746 37.4102V37.326L26.0654 37.2418V37.0733L26.2471 36.9049V36.8207L26.3379 36.7365V36.6522L26.5195 36.4838V36.3996L26.7012 36.2312V36.147L26.9736 35.8943V35.8101L28.0635 34.7995H28.1543L28.4268 34.5468H28.5176L28.6992 34.3784H28.79L28.9717 34.21H29.0625L29.1533 34.1258H29.2441L29.335 34.0415H29.4258L29.5166 33.9573H29.6074L29.6982 33.8731H29.7891L29.8799 33.7889H29.9707L30.0615 33.7047H30.2432L30.334 33.6205H30.5156L30.6064 33.5363H30.7881L30.8789 33.452H31.1514L31.2422 33.3678H31.6963L31.7871 33.2836H33.876L33.9668 33.3678H34.4209L34.5117 33.452H34.875L34.9658 33.5363H35.1475L35.2383 33.6205H35.4199L35.5107 33.7047H35.6924L35.7832 33.7889H35.874L35.9648 33.8731H36.1465L36.2373 33.9573H36.3281L36.4189 34.0415H36.5098L36.6914 34.21H36.7822L36.873 34.2942H36.9639L37.1455 34.4626H37.2363L37.418 34.6311H37.5088L37.8721 34.9679H37.9629L38.9619 35.8943V35.9785L39.2344 36.2312V36.3154L39.5068 36.568V36.6522L39.5977 36.7365V36.8207L39.7793 36.9891V37.0733L39.8701 37.1575V37.2418L39.9609 37.326V37.4102L40.0518 37.4944V37.6628L40.1426 37.7471V37.8313H42.4131L42.5039 37.9155H62.666L62.7568 37.8313L62.8477 37.9155H63.1201L63.2109 37.8313H71.6572L71.5664 37.7471V37.326L71.4756 37.2418V36.9049L71.3848 36.8207V36.568L71.2939 36.4838V36.3154L71.2031 36.2312V36.0627L71.1123 35.9785V35.8101L71.0215 35.7259V35.6417L70.8398 35.4732V35.389L70.6582 35.2206V35.1364L69.8408 34.3784H69.75L69.5684 34.21H69.4775L69.2959 34.0415H69.2051L69.0234 33.8731H68.9326L68.751 33.7047H68.6602L68.5693 33.6205H68.4785L68.3877 33.5363H68.2969L68.2061 33.452H68.1152L68.0244 33.3678H67.9336L67.8428 33.2836H67.6611L67.5703 33.1994H67.4795L67.3887 33.1152H67.207L67.1162 33.031H67.0254L66.9346 32.9467H66.7529L66.6621 32.8625H66.4805L66.3896 32.7783H66.208L66.1172 32.6941H65.8447L65.7539 32.6099H65.5723L65.4814 32.5257H65.209L65.1182 32.4414H64.8457L64.7549 32.3572H64.3916L64.3008 32.273H63.9375L63.8467 32.1888H63.4834L63.3926 32.1046H62.8477L62.7568 32.0204H62.3027L62.2119 31.9361H61.667L61.5762 31.8519H61.0312L60.9404 31.7677H60.3955L60.3047 31.6835H59.9414L59.8506 31.5993H59.4873L59.3965 31.5151H59.124L59.0332 31.4308H58.8516L58.7607 31.3466H58.5791L58.4883 31.2624H58.3066L58.2158 31.1782H58.125L58.0342 31.094H57.8525L57.7617 31.0098H57.6709L57.5801 30.9255H57.4893L57.3984 30.8413H57.3076L57.2168 30.7571H57.126L57.0352 30.6729H56.9443L56.8535 30.5887H56.7627L56.6719 30.5045H56.5811L56.3994 30.336H56.3086L56.2178 30.2518H56.127L55.9453 30.0834H55.8545L55.7637 29.9992H55.6729L55.4912 29.8307H55.4004L55.3096 29.7465H55.2188L54.9463 29.4939H54.8555L54.6738 29.3254H54.583L54.3105 29.0728H54.2197L53.9473 28.8201H53.8564L53.6748 28.6517H53.584L53.3115 28.3991H53.2207L53.0391 28.2306H52.9482L52.6758 27.978H52.585L52.4033 27.8096H52.3125L52.1309 27.6411H52.04L51.8584 27.4727H51.7676L51.6768 27.3885H51.5859L51.4043 27.22H51.3135L51.2227 27.1358H51.1318L51.041 27.0516H50.9502L50.8594 26.9674H50.7686L50.5869 26.799H50.4961L50.4053 26.7147H50.3145L50.2236 26.6305H50.1328L50.042 26.5463H49.9512L49.8604 26.4621H49.6787L49.5879 26.3779H49.4971L49.4062 26.2937H49.2246L49.1338 26.2094H49.043L48.9521 26.1252H48.7705L48.6797 26.041H48.5889L48.498 25.9568H48.3164L48.2256 25.8726H48.0439L47.9531 25.7884H47.7715L47.6807 25.7041H47.499L47.4082 25.6199H47.1357L47.0449 25.5357H46.7725L46.6816 25.4515H46.5L46.4092 25.3673H46.1367L46.0459 25.2831H45.6826L45.5918 25.1989H45.2285L45.1377 25.1146H44.7744L44.6836 25.0304H44.1387L44.0479 24.9462H43.4121L43.3213 24.862H42.4131L42.3223 24.7778H39.416Z" fill="#F7F5F5"/>
<path d="M0 0.315796V85.8345H93V0.315796H0ZM85.1818 49.2194L85.2727 49.1358H87.3636L87.4545 49.2194V59.0002L87.3636 59.0838H85.2727L85.1818 59.0002V49.2194ZM74.1818 49.2194L74.2727 49.1358H80L80.0909 49.2194H80.6364L80.7273 49.303H81L81.0909 49.3866H81.1818L81.2727 49.4702H81.4545L81.5455 49.5538H81.6364L81.8182 49.721H81.9091L82.5455 50.3062V50.3898L82.7273 50.557V50.6406L82.8182 50.7242V50.8914L82.9091 50.975V51.2257L83 51.3093V52.3961L82.9091 52.4797V52.6469L82.8182 52.7305V52.8141L82.7273 52.8977V52.9813L82.6364 53.0649V53.1485L81.9091 53.8172H81.8182L81.7273 53.9008H81.8182L81.9091 53.9844H82L82.1818 54.1516H82.2727L82.9091 54.7368V54.8204L83.0909 54.9876V55.0712L83.1818 55.1548V55.3219L83.2727 55.4055V55.5727L83.3636 55.6563V56.7431L83.2727 56.8267V56.9939L83.1818 57.0775V57.2447L83.0909 57.3283V57.4118L83 57.4954V57.579L82.9091 57.6626V57.7462L82.0909 58.4986H82L81.8182 58.6658H81.7273L81.6364 58.7494H81.4545L81.3636 58.833H81.1818L81.0909 58.9166H80.8182L80.7273 59.0002H79.8182L79.7273 59.0838H74.2727L74.1818 59.0002V49.2194ZM48.1818 49.2194L48.2727 49.1358H50.8182L51 49.303V49.3866L51.0909 49.4702V49.5538L51.1818 49.6374V49.721L51.2727 49.8046V49.8882L51.3636 49.9718V50.0554L51.4545 50.139V50.2226L51.5455 50.3062V50.3898L51.6364 50.4734V50.557L51.7273 50.6406V50.7242L51.8182 50.8078V50.8914L51.9091 50.975V51.0586L52 51.1422V51.2257L52.0909 51.3093V51.3929L52.1818 51.4765V51.5601L52.2727 51.6437V51.7273L52.3636 51.8109V51.8945L52.4545 51.9781V52.0617L52.5455 52.1453V52.2289L52.7273 52.3961V52.4797L52.8182 52.5633V52.6469L52.9091 52.7305V52.8141L53 52.8977V52.9813L53.0909 53.0649V53.1485L53.1818 53.2321V53.3156L53.2727 53.3992V53.4828L53.3636 53.5664V53.65L53.4545 53.7336V53.8172L53.5455 53.9008V53.9844L53.6364 54.068V54.1516L53.7273 54.2352V54.3188L53.8182 54.4024V54.486L53.9091 54.5696V54.4024L54 54.3188V54.2352L54.0909 54.1516V54.068L54.1818 53.9844V53.9008L54.2727 53.8172V53.7336L54.3636 53.65V53.5664L54.4545 53.4828V53.3992L54.5455 53.3156V53.2321L54.6364 53.1485V53.0649L54.7273 52.9813V52.8977L54.8182 52.8141V52.7305L54.9091 52.6469V52.5633L55 52.4797V52.3961L55.0909 52.3125V52.2289L55.2727 52.0617V51.8945L55.4545 51.7273V51.6437L55.5455 51.5601V51.4765L55.6364 51.3929V51.3093L55.7273 51.2257V51.1422L55.8182 51.0586V50.975L55.9091 50.8914V50.8078L56 50.7242V50.6406L56.0909 50.557V50.4734L56.1818 50.3898V50.3062L56.2727 50.2226V50.139L56.3636 50.0554V49.9718L56.4545 49.8882V49.8046L56.5455 49.721V49.6374L56.6364 49.5538V49.4702L56.7273 49.3866V49.303L56.9091 49.1358H59.4545L59.5455 49.2194V59.0002L59.4545 59.0838H59.3636L59.2727 59.0002L59.1818 59.0838L59.0909 59.0002L59 59.0838H57.3636L57.2727 59.0002V52.5633V52.6469L57.1818 52.7305V52.8141L57.0909 52.8977V52.9813L57 53.0649V53.1485L56.9091 53.2321V53.3156L56.8182 53.3992V53.4828L56.7273 53.5664V53.65L56.6364 53.7336V53.8172L56.5455 53.9008V53.9844L56.4545 54.068V54.1516L56.2727 54.3188V54.486L56.1818 54.5696V54.6532L56 54.8204V54.9876L55.9091 55.0712V55.1548L55.7273 55.3219V55.4055L55.6364 55.4891V55.5727L55.5455 55.6563V55.7399L55.4545 55.8235V55.9071L55.3636 55.9907V56.0743L55.2727 56.1579V56.2415L55.1818 56.3251V56.4087L55.0909 56.4923V56.5759L55 56.6595V56.7431L54.9091 56.8267V56.9103L54.8182 56.9939V57.0775L54.7273 57.1611V57.2447L54.6364 57.3283H53L52.9091 57.2447V57.1611L52.8182 57.0775V56.9939L52.7273 56.9103V56.8267L52.6364 56.7431V56.6595L52.5455 56.5759V56.4923L52.4545 56.4087V56.3251L52.3636 56.2415V56.1579L52.2727 56.0743V55.9907L52.1818 55.9071V55.8235L52.0909 55.7399V55.6563L52 55.5727V55.4891L51.9091 55.4055V55.3219L51.8182 55.2384V55.1548L51.7273 55.0712V54.9876L51.6364 54.904V54.8204L51.5455 54.7368V54.6532L51.4545 54.5696V54.486L51.3636 54.4024V54.2352L51.2727 54.1516V54.068L51.1818 53.9844V53.9008L51.0909 53.8172V53.7336L51 53.65V53.5664L50.9091 53.4828V53.3992L50.8182 53.3156V53.2321L50.7273 53.1485V53.0649L50.6364 52.9813V52.8977L50.5455 52.8141V52.7305L50.4545 52.6469V52.5633V59.0002L50.3636 59.0838H48.2727L48.1818 59.0002V49.2194ZM40.3636 49.2194L40.4545 49.1358H42.7273L42.9091 49.303V49.3866L43 49.4702V49.6374L43.0909 49.721V49.8882L43.1818 49.9718V50.0554L43.2727 50.139V50.3062L43.3636 50.3898V50.4734L43.4545 50.557V50.7242L43.5455 50.8078V50.8914L43.6364 50.975V51.1422L43.7273 51.2257V51.3093L43.8182 51.3929V51.5601L43.9091 51.6437V51.7273L44 51.8109V51.9781L44.0909 52.0617V52.2289L44.1818 52.3125V52.3961L44.2727 52.4797V52.6469L44.3636 52.7305V52.8141L44.4545 52.8977V53.0649L44.5455 53.1485V53.2321L44.6364 53.3156V53.4828L44.7273 53.5664V53.7336L44.8182 53.8172V53.9008L44.9091 53.9844V54.1516L45 54.2352V54.3188L45.0909 54.4024V54.5696L45.1818 54.6532V54.7368L45.2727 54.8204V54.9876L45.3636 55.0712V55.2384L45.4545 55.3219V55.4055L45.5455 55.4891V55.6563L45.6364 55.7399V55.8235L45.7273 55.9071V56.0743L45.8182 56.1579V56.2415L45.9091 56.3251V56.4923L46 56.5759V56.7431L46.0909 56.8267V56.9103L46.1818 56.9939V57.1611L46.2727 57.2447V57.3283L46.3636 57.4118V57.579L46.4545 57.6626V57.7462L46.5455 57.8298V57.997L46.6364 58.0806V58.1642L46.7273 58.2478V58.415L46.8182 58.4986V58.6658L46.9091 58.7494V58.833L47 58.9166V59.0002L46.9091 59.0838H46.2727L46.1818 59.0002H45.8182L45.7273 59.0838L45.6364 59.0002H45.3636L45.2727 59.0838H45.0909L45 59.0002H44.7273L44.6364 59.0838H44.5455L44.4545 59.0002V58.9166L44.3636 58.833V58.6658L44.2727 58.5822V58.415L44.1818 58.3314V58.1642L44.0909 58.0806V57.997L44 57.9134V57.7462L43.9091 57.6626V57.4954L43.8182 57.4118V57.2447L43.7273 57.1611V56.9939H39.4545V57.1611L39.3636 57.2447V57.4118L39.2727 57.4954V57.6626L39.1818 57.7462V57.9134L39.0909 57.997V58.1642L39 58.2478V58.3314L38.9091 58.415V58.5822L38.8182 58.6658V58.833L38.7273 58.9166V59.0002L38.6364 59.0838H38.2727L38.1818 59.0002L38.0909 59.0838H37.9091L37.8182 59.0002L37.7273 59.0838H37.5455L37.4545 59.0002L37.3636 59.0838L37.2727 59.0002L37.1818 59.0838L37.0909 59.0002L37 59.0838H36.2727L36.1818 59.0002V58.9166L36.2727 58.833V58.7494L36.3636 58.6658V58.4986L36.4545 58.415V58.3314L36.5455 58.2478V58.0806L36.6364 57.997V57.9134L36.7273 57.8298V57.6626L36.8182 57.579V57.4954L36.9091 57.4118V57.2447L37 57.1611V57.0775L37.0909 56.9939V56.8267L37.1818 56.7431V56.5759L37.2727 56.4923V56.4087L37.3636 56.3251V56.1579L37.4545 56.0743V55.9907L37.5455 55.9071V55.7399L37.6364 55.6563V55.5727L37.7273 55.4891V55.3219L37.8182 55.2384V55.1548L37.9091 55.0712V54.904L38 54.8204V54.7368L38.0909 54.6532V54.486L38.1818 54.4024V54.3188L38.2727 54.2352V54.068L38.3636 53.9844V53.9008L38.4545 53.8172V53.65L38.5455 53.5664V53.3992L38.6364 53.3156V53.2321L38.7273 53.1485V52.9813L38.8182 52.8977V52.8141L38.9091 52.7305V52.5633L39 52.4797V52.3961L39.0909 52.3125V52.1453L39.1818 52.0617V51.9781L39.2727 51.8945V51.7273L39.3636 51.6437V51.5601L39.4545 51.4765V51.3093L39.5455 51.2257V51.0586L39.6364 50.975V50.8914L39.7273 50.8078V50.6406L39.8182 50.557V50.4734L39.9091 50.3898V50.2226L40 50.139V50.0554L40.0909 49.9718V49.8046L40.1818 49.721V49.6374L40.2727 49.5538V49.3866L40.3636 49.303V49.2194ZM5.81818 49.2194L5.90909 49.1358H8.09091L8.18182 49.2194V57.0775H13.2727L13.3636 57.1611V59.0002L13.2727 59.0838H6L5.81818 58.9166V49.2194ZM66.3636 49.0522L66.4545 48.9687H67.3636L67.4545 49.0522H68L68.0909 49.1358H68.3636L68.4545 49.2194H68.6364L68.7273 49.303H68.9091L69 49.3866H69.1818L69.2727 49.4702H69.3636L69.4545 49.5538H69.5455L69.6364 49.6374H69.7273L69.9091 49.8046H70L70.0909 49.8882H70.1818L70.4545 50.139H70.5455L71.4545 50.975V51.0586L71.7273 51.3093V51.3929L71.8182 51.4765V51.5601L72 51.7273V51.8109L72.0909 51.8945V52.0617L72.1818 52.1453V52.2289L72.2727 52.3125V52.4797L72.3636 52.5633V52.7305L72.4545 52.8141V53.1485L72.5455 53.2321V54.904L72.4545 54.9876V55.3219L72.3636 55.4055V55.6563L72.2727 55.7399V55.9071L72.1818 55.9907V56.0743L72.0909 56.1579V56.2415L72 56.3251V56.4087L71.9091 56.4923V56.5759L71.8182 56.6595V56.7431L71.6364 56.9103V56.9939L71.3636 57.2447V57.3283L70.6364 57.997H70.5455L70.2727 58.2478H70.1818L70 58.415H69.9091L69.8182 58.4986H69.7273L69.6364 58.5822H69.5455L69.4545 58.6658H69.3636L69.2727 58.7494H69.1818L69.0909 58.833H68.9091L68.8182 58.9166H68.6364L68.5455 59.0002H68.2727L68.1818 59.0838H67.7273L67.6364 59.1674H66.1818L66.0909 59.0838H65.6364L65.5455 59.0002H65.2727L65.1818 58.9166H65L64.9091 58.833H64.7273L64.6364 58.7494H64.5455L64.4545 58.6658H64.3636L64.2727 58.5822H64.1818L64.0909 58.4986H64L63.8182 58.3314H63.7273L63.5455 58.1642H63.4545L62.2727 57.0775V56.9939L62.0909 56.8267V56.7431L62 56.6595V56.5759L61.8182 56.4087V56.3251L61.7273 56.2415V56.0743L61.6364 55.9907V55.9071L61.5455 55.8235V55.6563L61.4545 55.5727V55.3219L61.3636 55.2384V54.904L61.2727 54.8204V53.3156L61.3636 53.2321V52.8977L61.4545 52.8141V52.5633L61.5455 52.4797V52.3961L61.6364 52.3125V52.1453L61.7273 52.0617V51.9781L61.8182 51.8945V51.8109L61.9091 51.7273V51.6437L62 51.5601V51.4765L62.1818 51.3093V51.2257L62.3636 51.0586V50.975L63.3636 50.0554H63.4545L63.7273 49.8046H63.8182L63.9091 49.721H64L64.1818 49.5538H64.2727L64.3636 49.4702H64.5455L64.6364 49.3866H64.7273L64.8182 49.303H65L65.0909 49.2194H65.2727L65.3636 49.1358H65.7273L65.8182 49.0522H66.3636ZM30.6364 49.0522L30.7273 48.9687H31.7273L31.8182 49.0522H32.2727L32.3636 49.1358H32.6364L32.7273 49.2194H32.9091L33 49.303H33.1818L33.2727 49.3866H33.4545L33.5455 49.4702H33.6364L33.7273 49.5538H33.8182L33.9091 49.6374H34L34.1818 49.8046H34.2727L34.5455 50.0554H34.6364L35.5455 50.8914V50.975L35.8182 51.2257V51.3093L35.9091 51.3929V51.4765L35.8182 51.5601H35.7273L35.6364 51.6437H35.5455L35.4545 51.7273H35.3636L35.2727 51.8109H35.1818L35.0909 51.8945H35L34.8182 52.0617H34.7273L34.6364 52.1453H34.5455L34.4545 52.2289H34.3636L34.2727 52.3125H34.1818L34 52.4797H33.9091L33.8182 52.3961V52.3125L33.6364 52.1453V52.0617L33.0909 51.5601H33L32.8182 51.3929H32.7273L32.5455 51.2257H32.3636L32.2727 51.1422H32.1818L32.0909 51.0586H31.8182L31.7273 50.975H30.8182L30.7273 51.0586H30.4545L30.3636 51.1422H30.1818L30.0909 51.2257H30L29.9091 51.3093H29.8182L29.7273 51.3929H29.6364L29.4545 51.5601H29.3636L28.8182 52.0617V52.1453L28.6364 52.3125V52.3961L28.5455 52.4797V52.5633L28.4545 52.6469V52.7305L28.3636 52.8141V52.8977L28.2727 52.9813V53.2321L28.1818 53.3156V53.7336L28.0909 53.8172V54.2352L28.1818 54.3188V54.8204L28.2727 54.904V55.1548L28.3636 55.2384V55.3219L28.4545 55.4055V55.4891L28.5455 55.5727V55.6563L28.6364 55.7399V55.8235L28.8182 55.9907V56.0743L29.3636 56.5759H29.4545L29.6364 56.7431H29.7273L29.8182 56.8267H29.9091L30 56.9103H30.1818L30.2727 56.9939H30.4545L30.5455 57.0775H30.9091L31 57.1611H31.6364L31.7273 57.0775H32L32.0909 56.9939H32.2727L32.3636 56.9103H32.5455L32.6364 56.8267H32.7273L32.9091 56.6595H33L33.2727 56.4087H33.3636L33.6364 56.1579V56.0743L34 55.7399L34.0909 55.8235H34.1818L34.2727 55.9071H34.3636L34.5455 56.0743H34.6364L34.7273 56.1579H34.8182L34.9091 56.2415H35L35.1818 56.4087H35.2727L35.3636 56.4923H35.4545L35.5455 56.5759H35.6364L35.7273 56.6595H35.8182L35.9091 56.7431V56.8267L35.8182 56.9103V56.9939L35.5455 57.2447V57.3283L34.7273 58.0806H34.6364L34.3636 58.3314H34.2727L34.1818 58.415H34.0909L33.9091 58.5822H33.8182L33.7273 58.6658H33.6364L33.5455 58.7494H33.3636L33.2727 58.833H33.1818L33.0909 58.9166H32.9091L32.8182 59.0002H32.5455L32.4545 59.0838H32.0909L32 59.1674H30.5455L30.4545 59.0838H30L29.9091 59.0002H29.7273L29.6364 58.9166H29.4545L29.3636 58.833H29.1818L29.0909 58.7494H29L28.9091 58.6658H28.8182L28.7273 58.5822H28.6364L28.5455 58.4986H28.4545L28.3636 58.415H28.2727L28.0909 58.2478H28L27.7273 57.997H27.6364L26.9091 57.3283V57.2447L26.6364 56.9939V56.9103L26.4545 56.7431V56.6595L26.3636 56.5759V56.4923L26.2727 56.4087V56.3251L26.1818 56.2415V56.1579L26.0909 56.0743V55.9907L26 55.9071V55.7399L25.9091 55.6563V55.4055L25.8182 55.3219V54.9876L25.7273 54.904V53.3992L25.8182 53.3156V52.9813L25.9091 52.8977V52.6469L26 52.5633V52.3961L26.0909 52.3125V52.2289L26.1818 52.1453V51.9781L26.2727 51.8945V51.8109L26.3636 51.7273V51.6437L26.5455 51.4765V51.3929L26.7273 51.2257V51.1422L27 50.8914V50.8078L27.6364 50.2226H27.7273L28 49.9718H28.0909L28.3636 49.721H28.4545L28.5455 49.6374H28.6364L28.7273 49.5538H28.8182L28.9091 49.4702H29L29.0909 49.3866H29.1818L29.2727 49.303H29.4545L29.5455 49.2194H29.7273L29.8182 49.1358H30.0909L30.1818 49.0522H30.6364ZM18.7273 49.0522L18.8182 48.9687H19.6364L19.7273 49.0522H20.2727L20.3636 49.1358H20.7273L20.8182 49.2194H21L21.0909 49.303H21.2727L21.3636 49.3866H21.4545L21.5455 49.4702H21.6364L21.7273 49.5538H21.8182L21.9091 49.6374H22L22.0909 49.721H22.1818L22.3636 49.8882H22.4545L22.6364 50.0554H22.7273L23.8182 51.0586V51.1422L24 51.3093V51.3929L24.1818 51.5601V51.6437L24.2727 51.7273V51.8109L24.3636 51.8945V51.9781L24.4545 52.0617V52.1453L24.5455 52.2289V52.3961L24.6364 52.4797V52.6469L24.7273 52.7305V53.0649L24.8182 53.1485V53.7336L24.9091 53.8172V54.486L24.8182 54.5696V55.0712L24.7273 55.1548V55.4891L24.6364 55.5727V55.7399L24.5455 55.8235V55.9907L24.4545 56.0743V56.1579L24.3636 56.2415V56.3251L24.2727 56.4087V56.4923L24.1818 56.5759V56.6595L24.0909 56.7431V56.8267L23.9091 56.9939V57.0775L23.5455 57.4118V57.4954L23.0909 57.9134H23L22.6364 58.2478H22.5455L22.3636 58.415H22.2727L22.1818 58.4986H22.0909L22 58.5822H21.9091L21.8182 58.6658H21.7273L21.6364 58.7494H21.5455L21.4545 58.833H21.2727L21.1818 58.9166H21L20.9091 59.0002H20.6364L20.5455 59.0838H20.0909L20 59.1674H18.4545L18.3636 59.0838H17.9091L17.8182 59.0002H17.5455L17.4545 58.9166H17.2727L17.1818 58.833H17.0909L17 58.7494H16.8182L16.7273 58.6658H16.6364L16.5455 58.5822H16.4545L16.2727 58.415H16.1818L16.0909 58.3314H16L15.7273 58.0806H15.6364L14.7273 57.2447V57.1611L14.4545 56.9103V56.8267L14.2727 56.6595V56.5759L14.1818 56.4923V56.4087L14.0909 56.3251V56.2415L14 56.1579V56.0743L13.9091 55.9907V55.8235L13.8182 55.7399V55.5727L13.7273 55.4891V55.2384L13.6364 55.1548V54.7368L13.5455 54.6532V53.4828L13.6364 53.3992V52.9813L13.7273 52.8977V52.6469L13.8182 52.5633V52.3961L13.9091 52.3125V52.1453L14 52.0617V51.9781L14.0909 51.8945V51.8109L14.1818 51.7273V51.6437L14.3636 51.4765V51.3929L14.5455 51.2257V51.1422L14.8182 50.8914V50.8078L15.3636 50.3062H15.4545L15.8182 49.9718H15.9091L16.0909 49.8046H16.1818L16.3636 49.6374H16.4545L16.5455 49.5538H16.6364L16.7273 49.4702H16.9091L17 49.3866H17.0909L17.1818 49.303H17.3636L17.4545 49.2194H17.6364L17.7273 49.1358H18.0909L18.1818 49.0522H18.7273ZM39.8182 23.2211L39.9091 23.1375H41.8182L41.9091 23.2211H43.0909L43.1818 23.3047H44L44.0909 23.3883H44.7273L44.8182 23.4719H45.1818L45.2727 23.5555H45.6364L45.7273 23.6391H46.0909L46.1818 23.7227H46.5455L46.6364 23.8063H46.9091L47 23.8899H47.2727L47.3636 23.9735H47.6364L47.7273 24.0571H47.9091L48 24.1406H48.1818L48.2727 24.2242H48.4545L48.5455 24.3078H48.7273L48.8182 24.3914H49L49.0909 24.475H49.2727L49.3636 24.5586H49.5455L49.6364 24.6422H49.7273L49.8182 24.7258H50L50.0909 24.8094H50.1818L50.2727 24.893H50.4545L50.5455 24.9766H50.6364L50.7273 25.0602H50.8182L50.9091 25.1438H51L51.0909 25.2274H51.1818L51.2727 25.311H51.3636L51.4545 25.3946H51.5455L51.6364 25.4782H51.7273L51.8182 25.5618H51.9091L52 25.6454H52.0909L52.1818 25.729H52.2727L52.3636 25.8126H52.4545L52.6364 25.9798H52.7273L52.9091 26.147H53L53.1818 26.3141H53.2727L53.3636 26.3977H53.4545L53.6364 26.5649H53.7273L54 26.8157H54.0909L54.2727 26.9829H54.3636L54.5455 27.1501H54.6364L54.8182 27.3173H54.9091L55.0909 27.4845H55.1818L55.3636 27.6517H55.4545L55.7273 27.9025H55.8182L56 28.0697H56.0909L56.3636 28.3204H56.4545L56.7273 28.5712H56.8182L57 28.7384H57.0909L57.2727 28.9056H57.3636L57.4545 28.9892H57.5455L57.7273 29.1564H57.8182L57.9091 29.24H58L58.0909 29.3236H58.1818L58.2727 29.4072H58.3636L58.4545 29.4908H58.5455L58.6364 29.5744H58.8182L58.9091 29.658H59L59.0909 29.7416H59.2727L59.3636 29.8252H59.5455L59.6364 29.9088H59.9091L60 29.9924H60.2727L60.3636 30.076H60.7273L60.8182 30.1596H61.2727L61.3636 30.2432H61.9091L62 30.3268H62.5455L62.6364 30.4103H63.1818L63.2727 30.4939H63.7273L63.8182 30.5775H64.2727L64.3636 30.6611H64.7273L64.8182 30.7447H65.1818L65.2727 30.8283H65.5455L65.6364 30.9119H65.9091L66 30.9955H66.2727L66.3636 31.0791H66.5455L66.6364 31.1627H66.8182L66.9091 31.2463H67.1818L67.2727 31.3299H67.4545L67.5455 31.4135H67.6364L67.7273 31.4971H67.9091L68 31.5807H68.0909L68.1818 31.6643H68.3636L68.4545 31.7479H68.5455L68.6364 31.8315H68.7273L68.8182 31.9151H69L69.0909 31.9987H69.1818L69.2727 32.0823H69.3636L69.4545 32.1659H69.5455L69.7273 32.3331H69.8182L69.9091 32.4167H70L70.0909 32.5002H70.1818L70.3636 32.6674H70.4545L70.6364 32.8346H70.7273L71 33.0854H71.0909L71.3636 33.3362H71.4545L72.4545 34.2558V34.3394L72.7273 34.5901V34.6737L72.9091 34.8409V34.9245L73.0909 35.0917V35.1753L73.1818 35.2589V35.3425L73.2727 35.4261V35.5097L73.3636 35.5933V35.6769L73.4545 35.7605V35.9277L73.5455 36.0113V36.1785L73.6364 36.2621V36.5129L73.7273 36.5964V36.8472L73.8182 36.9308V37.3488L73.9091 37.4324V38.1012L74 38.1848V39.1879L73.9091 39.2715V39.4387L73.8182 39.5223V39.6059L73.7273 39.6895V39.7731L73.3636 40.1075H73.2727L73.0909 40.2747H72.9091L72.8182 40.3583H72.0909L72 40.4419H42.1818L42.0909 40.3583H39.8182L39.7273 40.4419H38.5455L38.4545 40.5255H38L37.9091 40.6091H37.6364L37.5455 40.6927H37.3636L37.2727 40.7762H37.0909L37 40.8598H36.8182L36.7273 40.9434H36.6364L36.5455 41.027H36.3636L36.2727 41.1106H36.1818L36.0909 41.1942H36L35.9091 41.2778H35.8182L35.7273 41.3614H35.6364L35.4545 41.5286H35.3636L35.1818 41.6958H35.0909L35 41.7794H34.9091L34.6364 42.0302H34.5455L34.1818 42.3646H34.0909L33.2727 43.1169H33.1818V43.2005L32 44.2873V44.3709L31.7273 44.6217V44.7053L31.4545 44.956V45.0396L31.3636 45.1232H26.7273L26.5455 44.956V44.8725L26.3636 44.7053V44.6217L26.1818 44.4545V44.3709L26.0909 44.2873V44.2037L26 44.1201V44.0365L25.9091 43.9529V43.8693L25.8182 43.7857V43.7021L25.7273 43.6185V43.4513L25.6364 43.3677V43.2841L25.5455 43.2005V42.9497L25.4545 42.8661V42.699L25.3636 42.6154V42.281L25.2727 42.1974V41.6958L25.1818 41.6122V40.5255L25.2727 40.4419H24.1818L24.0909 40.3583H23.1818L23.0909 40.2747H22.7273L22.6364 40.1911H22.2727L22.1818 40.1075H22L21.9091 40.0239H21.7273L21.6364 39.9403H21.4545L21.3636 39.8567H21.2727L21.1818 39.7731H21.0909L21 39.6895H20.9091L20.8182 39.6059H20.7273L20.5455 39.4387H20.4545L20.2727 39.2715H20.1818L19.2727 38.4356V38.352L19.0909 38.1848V38.1012L18.9091 37.934V37.7668L18.8182 37.6832V37.5996L18.7273 37.516V37.3488L18.6364 37.2652V37.0144L18.5455 36.9308V36.5964L18.4545 36.5129V35.7605L18.3636 35.6769V33.0854L18.4545 33.0018V32.5002L18.5455 32.4167V32.0823L18.6364 31.9987V31.8315L18.7273 31.7479V31.5807L18.9091 31.4135V31.3299L19.3636 30.9119H19.4545L19.6364 30.7447H19.8182L19.9091 30.6611H20.1818L20.2727 30.5775H20.6364L20.7273 30.4939H21L21.0909 30.4103H21.2727L21.3636 30.3268H21.5455L21.6364 30.2432H21.8182L21.9091 30.1596H22L22.0909 30.076H22.2727L22.3636 29.9924H22.4545L22.5455 29.9088H22.6364L22.7273 29.8252H22.8182L22.9091 29.7416H23L23.0909 29.658H23.1818L23.2727 29.5744H23.3636L23.4545 29.4908H23.5455L23.6364 29.4072H23.7273L23.8182 29.3236H23.9091L24 29.24H24.0909L24.2727 29.0728H24.3636L24.4545 28.9892H24.5455L24.7273 28.822H24.8182L24.9091 28.7384H25L25.1818 28.5712H25.2727L25.4545 28.404H25.5455L25.7273 28.2369H25.8182L26 28.0697H26.0909L26.2727 27.9025H26.3636L26.5455 27.7353H26.6364L26.8182 27.5681H26.9091L27.0909 27.4009H27.1818L27.3636 27.2337H27.4545L27.6364 27.0665H27.7273L27.9091 26.8993H28L28.1818 26.7321H28.2727L28.4545 26.5649H28.5455L28.7273 26.3977H28.8182L29 26.2306H29.0909L29.1818 26.147H29.2727L29.4545 25.9798H29.5455L29.7273 25.8126H29.8182L29.9091 25.729H30L30.0909 25.6454H30.1818L30.2727 25.5618H30.3636L30.4545 25.4782H30.5455L30.6364 25.3946H30.7273L30.8182 25.311H30.9091L31 25.2274H31.0909L31.1818 25.1438H31.2727L31.3636 25.0602H31.4545L31.5455 24.9766H31.6364L31.7273 24.893H31.9091L32 24.8094H32.0909L32.1818 24.7258H32.2727L32.3636 24.6422H32.5455L32.6364 24.5586H32.7273L32.8182 24.475H33L33.0909 24.3914H33.2727L33.3636 24.3078H33.5455L33.6364 24.2242H33.8182L33.9091 24.1406H34.0909L34.1818 24.0571H34.4545L34.5455 23.9735H34.7273L34.8182 23.8899H35.0909L35.1818 23.8063H35.3636L35.4545 23.7227H35.7273L35.8182 23.6391H36.1818L36.2727 23.5555H36.6364L36.7273 23.4719H37.1818L37.2727 23.3883H37.8182L37.9091 23.3047H38.6364L38.7273 23.2211H39.8182Z" fill="#F7F5F5"/>
</svg>
